<svg xmlns="http://www.w3.org/2000/svg">
  <style> :root svg:not(:target) { display: none }  </style>

  <!-- Иконка подарка -->
  <svg width="78" height="81" viewBox="0 0 78 81" id="present-icon" fill="none" xmlns="http://www.w3.org/2000/svg">
  <path d="M64.0156 35.6325H14.031C12.2766 35.6325 10.8494 34.2144 10.8494 32.4709V22.9989C10.8494 21.2554 12.2766 19.8367 14.031 19.8367H64.0149C65.7687 19.8367 67.1953 21.2554 67.1953 22.9989V32.4715C67.1959 34.2144 65.7693 35.6325 64.0156 35.6325ZM14.031 22.2598C13.6276 22.2598 13.2869 22.5984 13.2869 22.9989V32.4715C13.2869 32.8786 13.6208 33.21 14.031 33.21H64.0149C64.4244 33.21 64.7578 32.8786 64.7578 32.4715V22.9989C64.7578 22.5978 64.4171 22.2598 64.0149 22.2598H14.031Z" fill="white"/>
  <path d="M57.0447 68.0821H20.999C17.6218 68.0821 14.8741 65.3512 14.8741 61.9933V34.421C14.8741 33.7523 15.4201 33.2095 16.0929 33.2095C16.7656 33.2095 17.3116 33.7523 17.3116 34.421V61.9933C17.3116 64.0148 18.9661 65.6589 20.999 65.6589H57.0447C59.077 65.6589 60.7308 64.0148 60.7308 61.9933V34.421C60.7308 33.7523 61.2768 33.2095 61.9496 33.2095C62.6223 33.2095 63.1683 33.7523 63.1683 34.421V61.9933C63.1683 65.3512 60.4213 68.0821 57.0447 68.0821Z" fill="white"/>
  <path d="M39.0225 68.0821C38.3498 68.0821 37.8038 67.5399 37.8038 66.8705V34.421C37.8038 33.7523 38.3498 33.2095 39.0225 33.2095C39.6953 33.2095 40.2413 33.7523 40.2413 34.421V66.8699C40.2413 67.5399 39.6959 68.0821 39.0225 68.0821Z" fill="white"/>
  <path d="M23.8113 22.2556C19.9966 20.2008 18.5731 15.4442 20.6383 11.6513C22.7022 7.86033 27.4864 6.44461 31.303 8.4958C37.117 11.6265 40.2565 20.3607 40.3869 20.7308L38.0877 21.5347C38.0585 21.4523 35.1256 13.31 30.1433 10.627C27.5078 9.21063 24.2062 10.1884 22.7821 12.8047C21.3567 15.4236 22.339 18.7069 24.9734 20.1251L23.8113 22.2556Z" fill="white"/>
  <path d="M54.2313 22.2556L53.071 20.1244C54.3477 19.4369 55.2782 18.2974 55.6926 16.9156C56.1063 15.5332 55.9534 14.0732 55.2617 12.8053C54.5719 11.5362 53.4263 10.6118 52.0363 10.2005C50.6457 9.78913 49.1783 9.94058 47.9023 10.6269C42.9201 13.3093 39.9871 21.4517 39.9579 21.5341L37.6587 20.7302C37.7891 20.3601 40.928 11.6259 46.7421 8.49578C48.5897 7.50109 50.7182 7.28179 52.7316 7.87788C54.7468 8.47337 56.4061 9.81397 57.4061 11.6513C58.4073 13.4881 58.6285 15.6029 58.0289 17.6062C57.4287 19.6089 56.0801 21.2597 54.2313 22.2556Z" fill="white"/>
  <path d="M61.9496 51.8567H16.0929C15.4201 51.8567 14.8741 51.3142 14.8741 50.6456C14.8741 49.9771 15.4201 49.4346 16.0929 49.4346H61.9496C62.6223 49.4346 63.1683 49.9771 63.1683 50.6456C63.1683 51.3142 62.6229 51.8567 61.9496 51.8567Z" fill="white"/>
  </svg>

  <!-- Вертикальная линия слайдера планшета-->
  <svg viewBox="0 0 40 512" id="slider-line-tablet" fill="none" xmlns="http://www.w3.org/2000/svg">
  <rect x="18" width="4" height="512" rx="2" fill="#666666"/>
  </svg>

  <!-- Вертикальная линия слайдера мобилки-->
  <svg viewBox="0 0 40 256" id="slider-line" fill="none" xmlns="http://www.w3.org/2000/svg">
  <rect x="18" width="4" height="256" rx="2" fill="#666666"/>
  </svg>

  <!-- Круг слайдера -->
  <svg viewBox="0 0 40 40" id="slider-circle" fill="none" xmlns="http://www.w3.org/2000/svg">
  <path d="M16 11L8 20L16 29V11Z" fill="#666666"/>
  <path d="M32 20L24 11V29L32 20Z" fill="#666666"/>
  <rect x="1" y="1" width="38" height="38" rx="19" stroke="#666666" stroke-width="2"/>
  </svg>

  <!-- Стрелка длинная -->
  <svg width="32" height="12" viewBox="0 0 32 12" id="icon-arrow-long" fill="none" xmlns="http://www.w3.org/2000/svg">
  <line y1="6" x2="26" y2="6" stroke="black" stroke-width="2"/>
  <path d="M32 6L25.25 11.1962L25.25 0.803848L32 6Z" fill="black"/>
  </svg>

  <!-- Стрелка короткая -->
  <svg width="32" height="12" viewBox="0 0 32 12" id="icon-arrow" fill="none" xmlns="http://www.w3.org/2000/svg">
  <line y1="6" x2="18" y2="6" stroke="black" stroke-width="2"/>
  <path d="M24 6L17.25 11.1962L17.25 0.803848L24 6Z" fill="black"/>
  </svg>

  <!-- Весы -->
  <svg width="60" height="60" viewBox="0 0 60 60" id="icon_scales" fill="none" xmlns="http://www.w3.org/2000/svg">
  <rect width="60" height="60" fill="#68B738"/>
  <path d="M23.1206 15C22.0538 15 22.0538 16.5831 23.1206 16.5831H29.7878V18.1873C22.9606 18.62 17.5627 24.4142 17.5627 31.4854C17.5627 35.4959 19.3122 39.1159 22.0751 41.5539C22.5552 41.976 22.6192 42.7254 22.1818 43.1897L20.6457 44.7412C19.8989 45.4272 21.0084 46.4931 21.6804 45.7438L23.686 43.7069C24.038 43.3692 24.5607 43.2847 24.9981 43.4958C26.7228 44.3397 28.6191 44.784 30.5432 44.795C32.4673 44.8059 34.3687 44.3833 36.1031 43.5591C36.5298 43.348 37.0632 43.4325 37.4045 43.7702L39.3461 45.7438C40.0288 46.377 41.0102 45.4272 40.3915 44.7412L38.9407 43.2636C38.4926 42.8098 38.5567 42.0605 39.0474 41.6277C40.5031 40.3585 41.6674 38.7959 42.4623 37.0447C43.2571 35.2936 43.6641 33.3944 43.6558 31.4748C43.6558 24.4036 38.226 18.5989 31.388 18.1873V16.5831H38.0553C39.122 16.5831 39.122 15 38.0553 15H23.1206ZM19.0029 31.4748C19.0029 24.9419 24.198 19.6543 30.6093 19.6543C37.0098 19.6543 42.205 24.9419 42.205 31.4748C42.205 38.0183 37.0098 43.3164 30.6093 43.3164C24.2087 43.3164 19.0029 38.0183 19.0029 31.4748ZM29.7985 23.3799C29.7985 22.2823 31.4627 22.2823 31.4627 23.3799V32.0131C31.4627 32.237 31.3728 32.4517 31.2127 32.6101C31.0527 32.7684 30.8356 32.8574 30.6093 32.8574C30.3961 32.8574 30.1915 32.7743 30.0397 32.6262C29.888 32.478 29.8013 32.2767 29.7985 32.0658V23.3799ZM24.8061 25.9973C25.1144 25.9973 25.4102 25.8761 25.6283 25.6603C25.8463 25.4446 25.9688 25.152 25.9688 24.8469C25.9688 24.5418 25.8463 24.2492 25.6283 24.0334C25.4102 23.8177 25.1144 23.6965 24.8061 23.6965C24.5183 23.7239 24.2511 23.8563 24.0567 24.0681C23.8622 24.2798 23.7545 24.5556 23.7545 24.8416C23.7545 25.1277 23.8622 25.4034 24.0567 25.6152C24.2511 25.8269 24.5183 25.9593 24.8061 25.9867V25.9973ZM36.4018 25.9973C36.7102 25.9973 37.0059 25.8761 37.224 25.6603C37.4421 25.4446 37.5646 25.152 37.5646 24.8469C37.5646 24.5418 37.4421 24.2492 37.224 24.0334C37.0059 23.8177 36.7102 23.6965 36.4018 23.6965C36.114 23.7239 35.8468 23.8563 35.6524 24.0681C35.458 24.2798 35.3503 24.5556 35.3503 24.8416C35.3503 25.1277 35.458 25.4034 35.6524 25.6152C35.8468 25.8269 36.114 25.9593 36.4018 25.9867V25.9973ZM25.9688 38.5882C25.9688 40.1185 23.6433 40.1185 23.6433 38.5882C23.6433 37.0579 25.9688 37.0579 25.9688 38.5882ZM30.6093 42.0288C30.7706 42.0441 30.9334 42.0259 31.0872 41.9754C31.241 41.9248 31.3824 41.843 31.5024 41.7352C31.6223 41.6273 31.7182 41.4959 31.7838 41.3493C31.8494 41.2026 31.8833 41.044 31.8833 40.8837C31.8833 40.7233 31.8494 40.5648 31.7838 40.4181C31.7182 40.2715 31.6223 40.14 31.5024 40.0322C31.3824 39.9244 31.241 39.8426 31.0872 39.792C30.9334 39.7414 30.7706 39.7232 30.6093 39.7386C30.3215 39.7659 30.0543 39.8984 29.8599 40.1101C29.6654 40.3219 29.5577 40.5976 29.5577 40.8837C29.5577 41.1697 29.6654 41.4455 29.8599 41.6572C30.0543 41.869 30.3215 42.0014 30.6093 42.0288ZM22.4912 31.6437C22.5067 31.8033 22.4883 31.9643 22.4372 32.1165C22.3861 32.2687 22.3034 32.4086 22.1944 32.5273C22.0854 32.646 21.9525 32.7408 21.8043 32.8057C21.6561 32.8706 21.4958 32.9041 21.3337 32.9041C21.1717 32.9041 21.0114 32.8706 20.8632 32.8057C20.7149 32.7408 20.5821 32.646 20.4731 32.5273C20.3641 32.4086 20.2814 32.2687 20.2303 32.1165C20.1792 31.9643 20.1608 31.8033 20.1763 31.6437C20.204 31.3589 20.3378 31.0946 20.5518 30.9023C20.7659 30.7099 21.0446 30.6033 21.3337 30.6033C21.6229 30.6033 21.9016 30.7099 22.1156 30.9023C22.3296 31.0946 22.4635 31.3589 22.4912 31.6437ZM39.8794 32.794C40.0408 32.8094 40.2036 32.7912 40.3574 32.7406C40.5112 32.6901 40.6526 32.6082 40.7726 32.5004C40.8925 32.3926 40.9884 32.2611 41.054 32.1145C41.1196 31.9679 41.1535 31.8093 41.1535 31.6489C41.1535 31.4886 41.1196 31.33 41.054 31.1834C40.9884 31.0367 40.8925 30.9053 40.7726 30.7975C40.6526 30.6896 40.5112 30.6078 40.3574 30.5573C40.2036 30.5067 40.0408 30.4885 39.8794 30.5038C39.5916 30.5312 39.3245 30.6637 39.13 30.8754C38.9356 31.0871 38.8279 31.3629 38.8279 31.6489C38.8279 31.935 38.9356 32.2108 39.13 32.4225C39.3245 32.6342 39.5916 32.7667 39.8794 32.794ZM37.5646 38.5987C37.5646 40.1185 35.239 40.1185 35.239 38.5882C35.239 37.0579 37.5646 37.0579 37.5646 38.5882V38.5987Z" fill="white"/>
  </svg>

  <!-- Столовые приборы -->
  <svg width="60" height="60" viewBox="0 0 60 60" id="icon_cutlery" fill="none" xmlns="http://www.w3.org/2000/svg">
  <rect width="60" height="60" fill="#68B738"/>
  <path fill-rule="evenodd" clip-rule="evenodd" d="M36.1173 15.0761C36.491 14.9214 36.9211 15.0069 37.2071 15.2929C38.1156 16.2014 39.3038 18.1706 40.2659 21.2108C41.2373 24.2804 42 28.5081 42 34C42 34.5523 41.5523 35 41 35H37.5V44C37.5 44.5523 37.0523 45 36.5 45C35.9477 45 35.5 44.5523 35.5 44V16C35.5 15.5956 35.7436 15.2309 36.1173 15.0761ZM37.5 33H39.9912C39.9053 28.1836 39.2051 24.4875 38.3591 21.8142C38.0807 20.9346 37.7885 20.1715 37.5 19.519V33Z" fill="white"/>
  <path fill-rule="evenodd" clip-rule="evenodd" d="M23.5 15C24.0523 15 24.5 15.4477 24.5 16V44C24.5 44.5523 24.0523 45 23.5 45C22.9477 45 22.5 44.5523 22.5 44V16C22.5 15.4477 22.9477 15 23.5 15Z" fill="white"/>
  <path fill-rule="evenodd" clip-rule="evenodd" d="M19 15C19.5523 15 20 15.4477 20 16V21.5C20 22.0569 20.192 22.8152 20.7009 23.4166C21.18 23.9828 22.0145 24.5 23.4999 24.5C24.0522 24.5 24.4999 24.9477 24.4999 25.5C24.4999 26.0523 24.0522 26.5 23.4999 26.5C21.4855 26.5 20.07 25.7672 19.1741 24.7084C18.308 23.6848 18 22.4431 18 21.5V16C18 15.4477 18.4477 15 19 15Z" fill="white"/>
  <path fill-rule="evenodd" clip-rule="evenodd" d="M28 15C27.4477 15 27 15.4477 27 16V21.5C27 22.0569 26.808 22.8152 26.2991 23.4166C25.82 23.9828 24.9854 24.5 23.4999 24.5C22.9476 24.5 22.5001 24.9477 22.5001 25.5C22.5001 26.0523 22.9476 26.5 23.4999 26.5C25.5144 26.5 26.93 25.7672 27.8259 24.7084C28.692 23.6848 29 22.4431 29 21.5V16C29 15.4477 28.5523 15 28 15Z" fill="white"/>
  </svg>

  <!-- Кастрюлька с водой -->
  <svg width="60" height="60" viewBox="0 0 60 60" id="icon_water" fill="none" xmlns="http://www.w3.org/2000/svg">
  <rect width="60" height="60" fill="#68B738"/>
  <path d="M28.375 16C26.7437 16 25.475 17.3594 25.475 19.0812C25.475 20.8031 26.7437 22.1625 28.375 22.1625C30.0063 22.1625 31.275 20.8031 31.275 19.0812C31.275 17.3594 30.0063 16 28.375 16ZM28.375 17.1781C29.3719 17.1781 30.0969 18.0209 30.0969 19.0812C30.0969 20.0781 29.3084 20.9844 28.375 20.9844C27.3781 20.9844 26.6531 20.1416 26.6531 19.0812C26.6531 18.0844 27.4325 17.1781 28.375 17.1781ZM17.5 40.7406C17.5 41.9188 17.9078 42.9156 18.8594 43.7313C19.8563 44.5831 21.0344 44.5106 21.0344 44.5106H40.0656C40.845 44.5106 41.8781 44.13 42.6937 43.0606C43.5366 42.0638 43.4822 40.7044 43.4822 40.7044V23.4856C43.4822 23.0506 43.3734 22.8875 42.7391 22.8875C42.1047 22.8875 42.0503 23.1594 42.0503 23.4766V40.6953C42.0322 40.9944 41.9778 41.7828 41.3072 42.4172C40.5731 43.0425 39.8572 42.9609 39.8572 42.9609C39.8572 42.9609 21.7322 42.9609 20.8259 42.9338C20.4816 42.8703 19.9197 42.7434 19.3759 42.0275C18.8684 41.3025 18.9681 40.3962 18.9681 40.3962V23.1775C18.9681 22.7153 18.7325 22.5431 18.2431 22.5431C17.7538 22.5431 17.5 22.7153 17.5 23.1231V40.7406ZM33.8125 24.4281C32.725 24.6637 31.6375 24.8088 29.5531 26.7844C27.4688 28.7781 25.9281 28.6875 24.3875 28.5969C22.8469 28.5063 21.2156 27.0563 20.9438 26.6938C20.6084 26.3403 20.0375 26.5759 19.8562 26.8116C19.7022 27.0472 19.7022 27.455 19.965 27.8084C21.2338 28.9866 22.4119 29.8928 24.6775 30.0741C26.9431 30.2916 29.1181 29.2675 30.5681 27.8084C32.0181 26.3584 32.7431 26.0866 33.8306 25.9053C36.4587 25.4884 37.9994 26.5216 38.9056 27.1741C39.9025 28.2616 40.1744 27.9534 40.4462 27.6453C40.99 26.9294 40.2197 26.3766 39.3588 25.7422C37.5463 24.5641 35.8244 24.1109 33.8306 24.4734L33.8125 24.4281ZM24.75 31.5875C23.5719 31.5875 22.6656 32.5844 22.6656 33.8531C22.6656 35.1219 23.5719 36.1188 24.75 36.1188C25.9281 36.1188 26.8344 35.1219 26.8344 33.8531C26.8344 32.5844 25.9281 31.5875 24.75 31.5875ZM36.5312 32.3669C34.9906 32.3669 33.7219 33.7262 33.7219 35.3575C33.7219 36.9888 34.9906 38.3481 36.5312 38.3481C38.0719 38.3481 39.3406 36.9888 39.3406 35.3575C39.3406 33.7262 38.0719 32.3669 36.5312 32.3669ZM36.5312 33.8169C37.3288 33.8169 37.9813 34.5147 37.9813 35.3575C37.9813 36.2184 37.3288 36.8981 36.5312 36.8981C35.7337 36.8981 35.0812 36.2003 35.0812 35.3575C35.0812 34.4966 35.7337 33.8169 36.5312 33.8169Z" fill="white"/>
  </svg>

  <!-- Листочек -->
  <svg width="60" height="60" viewBox="0 0 60 60" id="icon_leaf" fill="none" xmlns="http://www.w3.org/2000/svg">
  <rect width="60" height="60" fill="#68B738"/>
  <g clip-path="url(#clip0_95_18)">
  <path d="M42.8438 16.767C42.7434 16.317 42.3647 16 41.9325 16C41.9306 16 41.9288 16 41.9269 16C36.9891 16.033 24.9816 16.916 20.1337 24.38C17.6156 28.258 17.3991 33.293 19.4897 39.345C19.5056 39.392 19.5384 39.424 19.56 39.467C18.8128 41.44 18.5231 42.753 18.5156 42.79C18.4069 43.33 18.7303 43.862 19.2366 43.978C19.3022 43.993 19.3678 44 19.4334 44C19.8656 44 20.2547 43.679 20.3494 43.21C20.3691 43.108 22.7578 32.837 31.2028 26.832C31.6341 26.526 31.7503 25.905 31.4625 25.445C31.1747 24.985 30.5934 24.86 30.1622 25.168C25.3734 28.573 22.4241 33.176 20.6897 36.824C19.4484 32.246 19.7737 28.447 21.6759 25.519C25.4194 19.755 34.2984 18.365 39.6581 18.071C38.505 19.872 37.245 23.174 37.245 29C37.245 32.12 36.4153 34.522 34.7803 36.14C32.1591 38.731 27.9009 38.974 24.7866 38.724C24.2691 38.679 23.82 39.095 23.7806 39.646C23.7412 40.196 24.1284 40.676 24.6441 40.718C25.2675 40.769 25.9331 40.8 26.625 40.8C29.7956 40.8 33.4941 40.137 36.0544 37.606C38.0888 35.595 39.12 32.7 39.12 29.001C39.12 19.902 42.3356 17.905 42.3516 17.896C42.7416 17.687 42.9459 17.219 42.8438 16.767Z" fill="white"/>
  </g>
  <defs>
  <clipPath id="clip0_95_18">
  <rect width="30" height="32" fill="white" transform="translate(15 14)"/>
  </clipPath>
  </defs>
  </svg>

  <!--Кот идет-->
  <svg viewBox="0 0 134 100" id="cat_walk" fill="none" xmlns="http://www.w3.org/2000/svg">
  <circle cx="69" cy="50" r="50" fill="#68B738"/>
  <g clip-path="url(#clip0_94552_4019)">
  <path d="M123.118 25.7569C124.273 23.9199 125.807 22.3515 127.618 21.1569C128.618 20.4569 129.218 20.4569 129.818 21.7569C130.618 23.6569 131.318 25.6569 130.718 27.7569C130.609 28.113 130.588 28.4904 130.658 28.8564C130.728 29.2223 130.886 29.5658 131.118 29.8569C131.718 30.6569 132.218 31.4569 132.718 32.1569C133.399 33.0206 133.84 34.0482 133.998 35.1364C134.156 36.2246 134.025 37.3352 133.618 38.3569C133.251 39.3487 133.182 40.4261 133.418 41.4569C133.618 42.4469 133.618 43.4668 133.418 44.4569C133.337 45.1983 133.037 45.8987 132.556 46.4688C132.075 47.0388 131.435 47.4524 130.718 47.6569C129.439 47.9002 128.298 48.6137 127.518 49.6569C127.424 49.8105 127.291 49.9372 127.134 50.0247C126.976 50.1123 126.799 50.1578 126.618 50.1569C125.418 50.3569 122.418 47.6569 122.418 46.4569V45.8569C122.518 42.2569 122.318 41.9569 119.018 40.4569C118.328 40.2133 117.709 39.8007 117.218 39.2569C116.618 38.4569 115.818 38.5569 114.918 38.8569C114.018 39.1569 113.518 39.7569 113.618 40.7569C113.92 43.1777 114.02 45.6194 113.918 48.0569C113.925 48.335 113.993 48.6083 114.118 48.8569C117.218 53.3569 118.418 58.6569 119.918 63.7569C121.118 67.6569 123.318 69.7569 127.318 70.0569C127.958 70.1079 128.594 70.2082 129.218 70.3569C130.04 70.4889 130.803 70.8644 131.41 71.4349C132.016 72.0054 132.437 72.7445 132.618 73.5569C133.318 75.6569 132.918 76.1569 130.818 76.1569H124.318C123.477 76.1994 122.652 75.9124 122.018 75.3569C121.006 74.5027 119.856 73.8265 118.618 73.3569C117.249 72.8516 116.065 71.9455 115.218 70.7569C114.047 69.1203 112.706 67.612 111.218 66.2569C108.418 63.3569 105.418 60.5569 102.818 57.5569C100.839 55.5127 99.6973 52.8012 99.6182 49.9569C99.6182 49.0569 99.4182 48.6569 98.4182 49.0569C98.1188 49.2468 97.7728 49.3506 97.4182 49.3569C94.6182 49.3569 93.2182 51.0569 92.2182 53.5569C91.3182 55.6569 90.1182 57.6569 89.0182 59.7569C88.3945 61.0714 88.0538 62.5023 88.0182 63.9569C88.0182 66.3569 88.6182 67.1569 90.8182 67.9569C92.2182 68.4569 93.5182 68.9569 94.2182 70.3569C95.0182 71.9569 94.8182 72.3569 93.1182 72.4569H86.3182C85.9262 72.4957 85.5319 72.4104 85.191 72.213C84.8501 72.0156 84.5798 71.7162 84.4182 71.3569L82.6182 68.3569C82.0876 67.5741 81.7479 66.6779 81.6264 65.7401C81.5048 64.8023 81.6048 63.849 81.9182 62.9569C82.351 61.2204 82.3852 59.4084 82.0182 57.6569C81.7662 56.437 81.7879 55.1764 82.0819 53.9659C82.3758 52.7554 82.9347 51.6252 83.7182 50.6569C84.3182 49.9569 84.3182 49.6569 83.3182 49.4569C79.2291 48.5882 75.2649 47.2108 71.5182 45.3569C71.4917 45.3569 71.4663 45.3463 71.4475 45.3276C71.4288 45.3088 71.4182 45.2834 71.4182 45.2569C68.2182 44.0569 67.6182 44.2569 66.7182 47.5569C65.9182 50.3569 65.1182 53.1569 64.5182 56.0569C63.8182 59.2569 64.6182 62.2569 65.6182 65.2569C66.0182 66.4569 67.2182 66.3569 68.1182 66.6569C70.1182 67.2569 71.8182 68.0569 72.6182 70.1569C73.3182 71.7569 73.2182 71.9569 71.5182 71.9569C69.8182 71.9569 68.1182 71.8569 66.3182 71.9569C64.7993 71.9844 63.3169 71.4902 62.1182 70.5569C57.3182 67.3569 55.9182 62.4569 55.5182 57.1569C55.3182 53.8569 53.5182 51.2569 51.4182 48.7569C51.0182 48.2569 50.6182 48.0569 50.0182 48.4569C47.8717 49.6404 45.6307 50.6439 43.3182 51.4569C38.4925 53.1608 34.2579 56.2153 31.1182 60.2569C29.9459 61.7318 29.1866 63.4919 28.9182 65.3569C28.6182 67.1569 29.1182 67.9569 30.9182 68.4569C32.7182 68.9569 33.6182 69.9569 33.8182 71.8569C33.9182 72.6569 33.6182 73.0569 32.8182 73.0569H24.7182C24.4531 73.0381 24.1965 72.9555 23.9702 72.8162C23.7438 72.6769 23.5545 72.485 23.4182 72.2569C22.1621 70.7016 21.4899 68.7558 21.5182 66.7569C21.4658 63.3018 21.7673 59.8505 22.4182 56.4569C22.5517 55.4405 22.9311 54.4721 23.5236 53.6357C24.1161 52.7992 24.9038 52.12 25.8182 51.6569C31.7182 48.8569 34.8182 43.5569 37.6182 38.0569C38.2182 36.9569 37.7182 36.7569 36.7182 36.8569C33.9196 37.2454 31.2679 38.3474 29.0182 40.0569C26.0724 42.2057 23.2975 44.5795 20.7182 47.1569C17.9679 49.9505 14.3209 51.6855 10.4182 52.0569C3.11823 52.4569 -0.28177 48.3569 0.0182299 41.7569C0.0852924 39.5065 0.933877 37.3496 2.41823 35.6569C2.93425 34.9879 3.63796 34.4878 4.4395 34.2207C5.24103 33.9535 6.10401 33.9313 6.91823 34.1569C8.41823 34.5569 8.81823 35.3569 8.21823 36.8569C7.91823 37.4569 7.51823 37.9569 7.21823 38.5569C6.78683 39.1698 6.44975 39.844 6.21823 40.5569C5.11823 43.5569 6.61823 45.6569 9.71823 45.9569C13.0182 46.2569 15.7182 44.8569 18.2182 42.8569C21.2302 40.4451 23.9189 37.6555 26.2182 34.5569C27.9375 32.2943 30.1023 30.4081 32.5791 29.015C35.0558 27.6218 37.7918 26.7512 40.6182 26.4569C42.9182 26.1569 44.9182 25.1569 47.1182 24.5569C51.2327 23.3025 55.5172 22.6952 59.8182 22.7569C61.8103 22.8398 63.7948 22.4634 65.6182 21.6569C70.5182 19.6569 75.6182 19.6569 80.7182 20.6569C84.7182 21.4569 88.7182 22.4569 92.6182 23.4569C94.9392 23.8893 97.3257 23.8211 99.6182 23.2569C104.007 22.1444 108.496 21.4744 113.018 21.2569C115.981 21.1127 118.933 21.6964 121.618 22.9569C123.618 23.8569 123.618 23.8569 123.118 25.7569Z" fill="black"/>
  </g>
  </svg>

  <!-- Кошка сидит -->
  <svg viewBox="0 0 50 53" id="cat_sitting" fill="none" xmlns="http://www.w3.org/2000/svg">
  <circle cx="25" cy="28" r="25" fill="#68B738"/>
  <g clip-path="url(#clip0_94_6)">
  <path d="M35.2034 0H35.008C34.6778 0.187081 34.415 0.473924 34.2571 0.819588C33.968 1.37738 33.7453 1.96735 33.5937 2.57732C33.5612 2.76073 33.4688 2.92811 33.331 3.05315C33.1932 3.17818 33.0179 3.25377 32.8326 3.26804C32.2658 3.36597 31.7288 3.59243 31.2626 3.93012C30.7965 4.26781 30.4135 4.7078 30.1429 5.21649C29.7708 5.87697 29.4526 6.5665 29.1914 7.27835C28.4611 9.17526 27.9006 11.134 27.2114 13.0464C26.8874 13.9175 26.872 13.9175 25.8949 13.9175C24.7274 13.9175 24.8097 13.7371 24.7943 15.0258C24.7943 15.433 24.9177 15.6392 25.3497 15.6186C25.4834 15.6186 25.684 15.5515 25.7354 15.7268C25.7869 15.9021 25.612 15.9794 25.5091 16.0825C24.8994 16.7029 24.1276 17.1388 23.2823 17.3402C22.3051 17.6031 21.3074 17.8093 20.356 18.1289C17.9131 18.9485 15.6554 20.0928 13.8966 22.0309C12.8681 23.2347 12.0445 24.6001 11.4589 26.0722C9.57143 30.5258 8.656 35.2165 7.94629 39.9536C7.612 42.1753 7.37543 44.4072 7.19543 46.6546C7.10286 47.7577 7 48.8763 7 50H24.1411C24.1696 49.7731 24.1283 49.5429 24.0229 49.3402C23.858 48.9289 23.5901 48.5672 23.2451 48.29C22.9 48.0128 22.4895 47.8295 22.0531 47.7577C21.6931 47.6753 21.652 47.567 21.8731 47.2835C22.2338 46.801 22.5103 46.2607 22.6909 45.6856C23.5291 43.2062 23.8531 40.6186 24.2594 38.0567C24.4889 36.0999 25.0894 34.2051 26.0286 32.4742C26.7611 31.2002 27.7382 30.0842 28.9034 29.1907C29.3303 28.866 29.3457 28.866 29.4177 29.4175C29.4691 29.7835 29.4794 30.1598 29.5051 30.5309C29.6595 32.9662 29.6285 35.4097 29.4126 37.8402C29.2184 39.7242 29.1926 41.6217 29.3354 43.5103C29.5399 45.7029 29.9304 47.8739 30.5029 50H37.3429C37.2536 49.442 36.9973 48.9243 36.6078 48.5156C36.2184 48.1069 35.7143 47.8264 35.1623 47.7113C34.5177 47.6087 33.8587 47.6438 33.2286 47.8144C32.92 47.8866 32.7914 47.8144 32.7657 47.4794C32.5529 44.7505 32.7261 42.0051 33.28 39.3247C33.966 36.2304 34.4912 33.1025 34.8537 29.9536C34.9887 28.6819 35.3881 27.4528 36.0263 26.3454C36.6383 25.2526 37.1731 24.1186 37.7749 23.0206C38.0138 22.6214 38.1575 22.1723 38.195 21.7083C38.2325 21.2443 38.1626 20.7779 37.9909 20.3454C37.852 19.9794 37.7183 19.6082 37.5486 19.2577C37.0343 18.2526 36.52 17.2577 36.0469 16.2423C35.7949 15.7268 35.8514 15.6649 36.412 15.6495C37.2503 15.6495 37.2503 15.6495 37.2657 14.8041C37.2657 14.6907 37.2657 14.5773 37.2657 14.4639C37.2657 14.1082 37.132 13.9124 36.7514 13.9485C36.4943 13.9485 36.2371 13.9485 35.9697 13.9485C35.6149 13.9485 35.512 13.799 35.5994 13.433C35.7729 12.838 36.1142 12.306 36.5823 11.9009C37.0503 11.4958 37.6252 11.2349 38.2377 11.1495C39.3772 11.0505 40.5251 11.1252 41.6423 11.3711C41.7712 11.4118 41.9109 11.4001 42.0312 11.3383C42.1515 11.2766 42.2427 11.1699 42.2851 11.0412C42.4909 10.5258 42.7171 10.0103 42.9486 9.49484C43.001 9.40339 43.0242 9.29801 43.015 9.19293C43.0058 9.08785 42.9647 8.98812 42.8971 8.90722C41.2514 6.81443 39.4669 4.86082 37.0343 3.60825C36.9168 3.55754 36.8138 3.47814 36.7347 3.3773C36.6557 3.27646 36.6031 3.15738 36.5817 3.03093C36.444 2.29408 36.225 1.57487 35.9286 0.886598C35.7895 0.519904 35.5349 0.20865 35.2034 0V0Z" fill="black"/>
  </g>
  </svg>

  <!-- Значок телефона -->
  <svg width="21" height="20" viewBox="0 0 21 20" id="phone-field" fill="none" xmlns="http://www.w3.org/2000/svg">
  <g id="phone-stroke 1">
  <path id="Vector" d="M10.0022 10H18.5041M18.5041 10L16.0036 7.5M18.5041 10L16.0036 12.5M8.50191 2.5V7.5H5.50124V12.5H8.50191V17.5H6.00135C4.50102 17.5 3.50079 16.5 3.50079 15V5C3.50079 3.5 4.50102 2.5 6.00135 2.5H8.50191Z" stroke="black" stroke-linecap="round" stroke-linejoin="round"/>
  </g>
  </svg>

  <!-- Значок почты -->
  <svg width="19" height="14" viewBox="0 0 19 14" id="mail-field" fill="none" xmlns="http://www.w3.org/2000/svg">
    <line x1="1.111" y1="6" x2="1.111" y2="14" stroke="#68B738" stroke-width="1.3"/>
    <line x1="18.111" y1="6" x2="18.111" y2="14" stroke="#68B738" stroke-width="1.3"/>
    <line x1="0.460999" y1="13.35" x2="18.461" y2="13.35" stroke="#68B738" stroke-width="1.3"/>
    <line x1="0.460999" y1="1.35" x2="18.461" y2="1.35" stroke="#68B738" stroke-width="1.3"/>
    <path d="M17.811 3.1821L9.46102 9.67654L1.111 3.18209V1.65H3.961L9.46102 1.65H14.461H17.811V3.1821Z" stroke="#68B738" stroke-width="1.3"/>
    <rect x="0.960999" y="1.5" width="16.7816" height="12" stroke="white"/>
  </svg>

  <!-- Вконтакте -->
  <svg width="28" height="22" viewBox="0 0 28 22" id="icon-vkontakte" fill="none" xmlns="http://www.w3.org/2000/svg">
  <path d="M1 5.33876C1 4.48373 1.5151 4.02268 2.54531 3.95562L6.51515 3.98077C6.78158 3.98077 6.95921 4.10651 7.04802 4.35799C7.45655 5.61538 7.91392 6.70094 8.42014 7.61465C8.92637 8.52835 9.58801 9.58038 10.4051 10.7707C10.4761 10.9216 10.5916 10.997 10.7514 10.997C10.8758 10.997 10.9735 10.9384 11.0445 10.821L11.1244 10.5444L11.1511 6.19379C11.1511 5.89201 11.0756 5.69083 10.9246 5.59024C10.7736 5.48965 10.4939 5.4142 10.0853 5.36391C9.76563 5.31361 9.60577 5.12919 9.60577 4.81065C9.60577 4.74359 9.61465 4.69329 9.63241 4.65976C10.0054 3.57002 11.0711 3.02515 12.8296 3.02515L14.3216 3C14.9966 3 15.5561 3.15927 16.0001 3.47781C16.4442 3.79635 16.6662 4.29931 16.6662 4.98669V10.6953C16.7906 10.7791 16.906 10.821 17.0126 10.821C17.279 10.821 17.5099 10.6701 17.7053 10.3683C19.6592 7.78649 20.716 6.05966 20.8759 5.18787C20.8759 5.1711 20.8936 5.12919 20.9291 5.06213C21.0535 4.81065 21.2577 4.5927 21.5419 4.40828C21.8261 4.22387 22.0748 4.09813 22.288 4.03107C22.359 3.99753 22.4389 3.98077 22.5277 3.98077H26.6574L26.9239 4.00592C27.2791 4.00592 27.5544 4.16519 27.7498 4.48373C27.8209 4.58432 27.8697 4.69329 27.8964 4.81065C27.923 4.92801 27.9408 5.04536 27.9496 5.16272C27.9585 5.28008 27.963 5.34714 27.963 5.36391V5.53994C27.8386 6.22732 27.5233 6.9608 27.0171 7.74038C26.5109 8.51997 25.867 9.36243 25.0855 10.2678C24.304 11.1731 23.8155 11.7682 23.6201 12.0533C23.4603 12.2544 23.3803 12.4389 23.3803 12.6065C23.3803 12.7406 23.4514 12.8915 23.5935 13.0592L27.4834 17.6864C27.6965 17.9546 27.8031 18.248 27.8031 18.5666C27.8031 18.9522 27.6432 19.2707 27.3235 19.5222C27.0038 19.7737 26.6219 19.9162 26.1779 19.9497L25.7249 19.9749H21.6752C21.6574 19.9749 21.6219 19.979 21.5686 19.9874C21.5153 19.9958 21.4798 20 21.462 20C21.0712 20 20.7071 19.8407 20.3696 19.5222C20.2453 19.3881 19.4105 18.3989 17.8652 16.5547C17.7764 16.4374 17.652 16.3284 17.4922 16.2278C17.4211 16.4961 17.3279 16.8817 17.2124 17.3846C17.097 17.8876 17.0126 18.248 16.9593 18.466L16.8794 18.8935C16.7018 19.4803 16.3287 19.8323 15.7604 19.9497L15.3874 19.9749H12.7763C11.3021 19.9749 9.83224 19.3378 8.36686 18.0636C6.90148 16.7894 5.58264 15.1423 4.41034 13.122C3.23803 11.1018 2.14566 8.75049 1.13322 6.06805C1.04441 5.8501 1 5.607 1 5.33876ZM17.0126 11.8521C16.6396 11.8521 16.3021 11.7557 16.0001 11.5629C15.6982 11.3701 15.5472 11.106 15.5472 10.7707V4.98669C15.5472 4.65138 15.4584 4.41248 15.2808 4.26997C15.1032 4.12747 14.7923 4.05621 14.3483 4.05621L12.8296 4.10651C12.0658 4.10651 11.4886 4.23225 11.0978 4.48373C11.8793 4.8358 12.2701 5.40582 12.2701 6.19379V10.6198C12.2346 11.039 12.0569 11.3868 11.7372 11.6635C11.4175 11.9401 11.0623 12.0784 10.6715 12.0784C10.1386 12.0784 9.7301 11.8353 9.44591 11.3491C8.06046 9.37081 7.03025 7.4931 6.35529 5.71598L6.1155 5.06213L2.57195 5.03698C2.34104 5.03698 2.21227 5.04956 2.18562 5.0747C2.15898 5.09985 2.14566 5.1711 2.14566 5.28846C2.14566 5.43935 2.16342 5.59862 2.19895 5.76627L2.75845 7.17456C4.25048 10.8126 5.87127 13.6795 7.62085 15.7751C9.37042 17.8708 11.0889 18.9186 12.7763 18.9186H15.4406C15.5472 18.9186 15.6271 18.8893 15.6804 18.8306C15.7337 18.7719 15.7781 18.6588 15.8136 18.4911L15.8669 18.2396L16.3732 16.0266C16.5152 15.7249 16.6396 15.5237 16.7462 15.4231C16.9415 15.2387 17.1725 15.1465 17.4389 15.1465C17.8652 15.1465 18.3003 15.3895 18.7444 15.8757L21.0091 18.5917C21.1512 18.8097 21.3022 18.9186 21.462 18.9186H25.8581C26.391 18.9186 26.6574 18.7929 26.6574 18.5414C26.6574 18.4576 26.6308 18.3738 26.5775 18.2899L22.7142 13.7382C22.4123 13.3861 22.2613 13.0089 22.2613 12.6065C22.2613 12.2041 22.4034 11.8185 22.6876 11.4497C22.9185 11.1144 23.367 10.557 24.0331 9.77737C24.6992 8.99778 25.2809 8.26849 25.7782 7.5895C26.2756 6.9105 26.6042 6.29438 26.764 5.74112L26.8439 5.4142C26.8262 5.38067 26.8173 5.32618 26.8173 5.25074C26.8173 5.1753 26.8084 5.11243 26.7907 5.06213H22.6077C22.3412 5.16272 22.1281 5.31361 21.9682 5.51479L21.8084 5.9926C21.3643 7.14941 20.2009 8.93491 18.3181 11.3491C17.9451 11.6844 17.5099 11.8521 17.0126 11.8521Z" fill="#666666"/>
  </svg>

  <!-- Ютуб -->
  <svg width="28" height="22" viewBox="0 0 28 22" id="icon-youtube" fill="none" xmlns="http://www.w3.org/2000/svg">
  <path d="M17.8509 10.7927L12.6145 7.30184C12.5159 7.23691 12.4016 7.19985 12.2837 7.19459C12.1657 7.18934 12.0486 7.21608 11.9446 7.27198C11.8406 7.32789 11.7537 7.41087 11.693 7.51215C11.6324 7.61343 11.6002 7.72924 11.6 7.84729V14.8291C11.6001 14.9481 11.6327 15.0648 11.6942 15.1667C11.7557 15.2686 11.8438 15.3518 11.9491 15.4073C12.0524 15.4631 12.1691 15.4895 12.2864 15.4837C12.4037 15.478 12.5172 15.4402 12.6145 15.3746L17.8509 11.8837C17.9409 11.8239 18.0148 11.7429 18.0658 11.6477C18.1169 11.5526 18.1436 11.4462 18.1436 11.3382C18.1436 11.2302 18.1169 11.1239 18.0658 11.0287C18.0148 10.9335 17.9409 10.8525 17.8509 10.7927ZM12.9091 13.6073V9.06911L16.3127 11.3382L12.9091 13.6073ZM25.3891 5.04366C25.2942 4.67547 25.1131 4.33511 24.8609 4.05061C24.6086 3.76611 24.2924 3.54561 23.9382 3.40729C20.2182 1.9782 14.2509 2.00002 14 2.00002C13.7491 2.00002 7.78182 1.9782 4.06182 3.40729C3.70764 3.54561 3.3914 3.76611 3.13914 4.05061C2.88689 4.33511 2.70584 4.67547 2.61091 5.04366C2.32727 6.11275 2 8.07638 2 11.3382C2 14.6 2.32727 16.5637 2.61091 17.6327C2.70584 18.0009 2.88689 18.3413 3.13914 18.6258C3.3914 18.9103 3.70764 19.1308 4.06182 19.2691C7.78182 20.6982 13.7491 20.6764 14 20.6764H14.0764C14.8291 20.6764 20.3927 20.6327 23.9382 19.2691C24.2924 19.1308 24.6086 18.9103 24.8609 18.6258C25.1131 18.3413 25.2942 18.0009 25.3891 17.6327C25.6727 16.5637 26 14.6 26 11.3382C26 8.07638 25.6727 6.11275 25.3891 5.04366ZM24.1236 17.3055C24.0807 17.472 23.999 17.6259 23.8853 17.7548C23.7715 17.8838 23.6289 17.984 23.4691 18.0473C19.9782 19.3891 14.0655 19.3673 14 19.3673C13.9345 19.3673 8.02182 19.3891 4.53091 18.0473C4.37107 17.984 4.22846 17.8838 4.11471 17.7548C4.00096 17.6259 3.91929 17.472 3.87636 17.3055C3.61455 16.3018 3.30909 14.4582 3.30909 11.3382C3.30909 8.2182 3.61455 6.37457 3.87636 5.37093C3.91929 5.20445 4.00096 5.05047 4.11471 4.92156C4.22846 4.79264 4.37107 4.69243 4.53091 4.62911C8.02182 3.28729 13.9345 3.30911 14 3.30911C14.0655 3.30911 19.9782 3.28729 23.4691 4.62911C23.6289 4.69243 23.7715 4.79264 23.8853 4.92156C23.999 5.05047 24.0807 5.20445 24.1236 5.37093C24.3855 6.37457 24.6909 8.2182 24.6909 11.3382C24.6909 14.4582 24.3855 16.3018 24.1236 17.3055Z" fill="#666666"/>
  </svg>

  <!-- Телеграм -->
  <svg width="28" height="22" viewBox="0 0 28 22" id="icon-telegram" fill="none" xmlns="http://www.w3.org/2000/svg">
  <path fill-rule="evenodd" clip-rule="evenodd" d="M23.4608 3.15291C23.6393 3.30222 23.7255 3.5349 23.6872 3.76448L21.0611 19.5214C21.0244 19.7411 20.8789 19.9273 20.6745 20.0159C20.47 20.1045 20.2346 20.0833 20.0493 19.9597L12.1708 14.7074C12.0177 14.6054 11.9145 14.4437 11.8862 14.2619C11.858 14.08 11.9074 13.8947 12.0223 13.751L14.633 10.4877L10.273 13.3944C10.077 13.525 9.82597 13.5407 9.61524 13.4353L4.36293 10.8092C4.12769 10.6915 3.98535 10.4449 4.0012 10.1824C4.01705 9.91983 4.18804 9.6921 4.43573 9.60364L22.8188 3.03826C23.038 2.95998 23.2822 3.00359 23.4608 3.15291ZM6.32626 10.3228L9.86168 12.0905L17.4231 7.0495C17.6925 6.86994 18.0525 6.91349 18.2712 7.1521C18.49 7.3907 18.5022 7.75314 18.3 8.00591L13.495 14.0121L19.9328 18.3039L22.2083 4.65058L6.32626 10.3228Z" fill="#68B738"/>
  </svg>

  <!-- Значок академии -->
  <svg viewBox="0 0 28 34" id="htmlacademy">
  <path d="M14.1426 0.0157537L14 0L0.5 1.40733V26.0129L14 34L27.5 26.0129V1.40733L14.1426 0.0157537ZM25.7344 25.0151L14 31.9573L2.26561 25.0151V14.9293L13.9507 21.8451L13.9701 23.0984L5.95351 18.3548L5.94295 19.5801L13.9894 24.3885L14.0088 25.675L5.96408 20.9174L5.95351 22.1427L14 26.9511L22.1239 22.1182V20.8929V16.909L25.7432 14.7595L25.7344 25.0151ZM25.7344 13.4519L22.5147 15.3319L21.0325 16.2071L13.9666 12.0201L13.956 13.2454L19.9957 16.818L19.9429 16.8495L19.8126 16.9247L18.9536 17.4166L13.9666 14.4689L13.956 15.6942L17.8921 18.0222L16.9591 18.6314L16.938 18.6436L13.9666 16.902L13.956 18.1273L15.9029 19.2615L13.9155 20.4483L2.2973 13.5762L13.9349 6.61831L25.7344 13.4519ZM25.7344 12.2266L13.9401 5.31075L2.26561 12.2196V2.9897L14 1.76442L25.7344 2.9897V12.2266Z"/>
  </svg>
</svg>
